<svg xmlns="http://www.w3.org/2000/svg" width="312" height="38" viewBox="0 0 312 38" fill="none">
    <path
        d="M195.388 19.343L189.318 11.5783V19.343H185.929V2.54297H189.318V9.74293L195.388 2.54297H199.482L192.565 10.4488L199.765 19.343H195.388Z"
        fill="#231F58" />
    <path
        d="M209.788 19.3426V12.4249C209.788 10.5896 209.365 9.17779 207.671 9.17779C205.976 9.17779 204.847 11.1543 204.847 13.2719V19.3426H201.6V6.919H204.706V8.61322C205.694 7.20146 207.106 6.63672 208.8 6.63672C211.623 6.63672 213.035 8.61322 213.035 11.4368V19.2015H209.788V19.3426Z"
        fill="#231F58" />
    <path
        d="M221.929 19.6244C217.976 19.6244 215.436 16.942 215.436 13.2714C215.436 9.60084 218.117 6.77734 221.929 6.77734C225.741 6.77734 228.423 9.31849 228.423 13.2714C228.423 17.2244 225.882 19.6244 221.929 19.6244ZM225.035 12.848C225.035 10.8715 224.047 9.17727 221.929 9.17727C219.811 9.17727 218.824 10.8715 218.824 12.848C218.824 14.8245 219.811 17.0833 221.929 17.0833C224.047 17.0833 225.035 15.5304 225.035 12.848Z"
        fill="#231F58" />
    <path
        d="M242.399 19.3416L239.717 9.88264L237.035 19.3416H233.364L229.129 6.91797H232.517L235.2 16.0944L237.741 6.91797H241.553L244.235 16.0944L246.776 6.91797H249.882L246.07 19.3416H242.259H242.399Z"
        fill="#231F58" />
    <path d="M251.717 19.3421V1.27148H254.965V19.3421H251.717Z" fill="#231F58" />
    <path
        d="M268.235 18.6362C267.106 19.3421 265.694 19.6244 264 19.6244C259.906 19.6244 257.506 17.2244 257.506 13.2714C257.506 9.31849 259.341 6.77734 263.294 6.77734C267.247 6.77734 269.223 9.31859 269.223 14.2598H260.612C260.753 16.2362 262.024 17.3656 264.141 17.3656C266.259 17.3656 266.965 16.8008 268.235 16.095V18.7773V18.6362ZM266.118 11.8597C266.118 10.0244 265.13 8.89499 263.436 8.89499C261.741 8.89499 260.753 10.0244 260.612 11.8597H266.118Z"
        fill="#231F58" />
    <path
        d="M279.953 19.3421V17.9304C278.964 19.201 277.694 19.6244 276.141 19.6244C272.33 19.6244 270.917 16.5186 270.917 13.1303C270.917 9.74211 272.612 6.63626 276.141 6.63626C279.671 6.63626 278.823 7.2009 279.811 8.33031V1.27148H283.059V19.3421H279.953ZM279.953 13.1303C279.953 11.4362 279.106 9.17733 277.129 9.17733C275.153 9.17733 274.447 11.1539 274.447 13.1303C274.447 15.1068 275.011 17.0834 277.129 17.0834C279.247 17.0834 279.953 14.8245 279.953 13.1303Z"
        fill="#231F58" />
    <path
        d="M294.494 17.3656C293.788 18.6362 292.235 19.3421 290.682 19.3421C287.294 19.3421 285.6 16.8009 285.6 13.1303C285.6 9.4597 287.153 6.77734 290.823 6.77734C294.494 6.77734 293.788 7.34208 294.635 8.75385V7.05963H297.741V18.3537C297.741 22.589 295.623 24.848 291.247 24.848C286.87 24.848 288.564 24.7067 286.87 24.0008L287.153 21.3186C288.282 21.8833 289.835 22.4479 290.823 22.4479C293.788 22.4479 294.494 20.4715 294.494 17.9303V17.6479V17.3656ZM294.494 12.9891C294.494 11.1538 293.788 9.17727 291.811 9.17727C289.835 9.17727 288.988 10.8715 288.988 13.1303C288.988 15.3891 289.835 16.942 291.671 16.942C293.506 16.942 294.494 15.1068 294.494 13.1303V12.9891Z"
        fill="#231F58" />
    <path
        d="M311.011 18.6362C309.882 19.3421 308.47 19.6244 306.776 19.6244C302.682 19.6244 300.282 17.2244 300.282 13.2714C300.282 9.31849 302.117 6.77734 306.07 6.77734C310.023 6.77734 312 9.31859 312 14.2598H303.388C303.529 16.2362 304.8 17.3656 306.917 17.3656C309.035 17.3656 309.741 16.8008 311.011 16.095V18.7773V18.6362ZM308.894 11.8597C308.894 10.0244 307.906 8.89499 306.211 8.89499C304.517 8.89499 303.529 10.0244 303.388 11.8597H308.894Z"
        fill="#231F58" />
    <path d="M172.517 0V22.5882" stroke="#F37021" stroke-width="0.8" stroke-miterlimit="10" />
    <path d="M48.5644 26.2598H47.2939V35.7185H48.5644V26.2598Z" fill="#231F58" />
    <path
        d="M58.729 26.5413C58.1643 26.1178 57.5995 25.9766 56.8936 25.9766C56.1877 25.9766 55.6232 26.1178 54.9173 26.4002C54.3526 26.6825 53.7877 27.2472 53.3642 27.8119V26.1177H52.0938V35.5766H53.3642V32.1884C53.3642 30.9178 53.3643 30.0706 53.5055 29.6471C53.6467 28.9412 54.0703 28.3766 54.635 27.8119C55.1997 27.3884 55.9054 27.106 56.6113 27.106C57.3172 27.106 57.7409 27.2471 58.1644 27.5295C58.5879 27.8118 58.8701 28.3765 59.0113 28.9412C59.0113 29.3648 59.0113 30.0706 59.0113 31.0589V35.5766H60.2821V30.7766C60.2821 29.506 60.282 28.5178 59.8585 27.9531C59.5761 27.3884 59.1527 26.8237 58.588 26.5413H58.729Z"
        fill="#231F58" />
    <path
        d="M66.635 30.3525C65.9291 29.929 65.3644 29.6467 65.2233 29.3643C64.9409 29.082 64.941 28.7996 64.941 28.5173C64.941 28.2349 64.9407 27.8114 65.3642 27.6703C65.6466 27.3879 65.9292 27.2467 66.3527 27.2467C66.9174 27.2467 67.6231 27.529 68.1878 28.2348L69.035 27.3878C68.1879 26.5408 67.341 26.1172 66.3527 26.1172C65.3645 26.1172 64.9409 26.3995 64.5174 26.8231C64.0938 27.2466 63.8115 27.9526 63.8115 28.6584C63.8115 29.3643 63.9527 29.6467 64.2351 30.0702C64.5174 30.4937 65.0821 30.9173 65.9291 31.3408C66.7762 31.7643 67.1995 32.0466 67.4819 32.329C67.7642 32.6113 67.7645 32.8938 67.7645 33.3173C67.7645 33.7409 67.6231 34.1643 67.1996 34.4466C66.7761 34.729 66.4938 34.8702 65.9291 34.8702C65.2233 34.8702 64.5172 34.5878 63.9525 33.8819L63.2466 34.7291C63.5289 35.1526 63.9527 35.4349 64.5174 35.7173C64.9409 35.9996 65.5054 36.1409 66.0701 36.1409C66.9172 36.1409 67.6233 35.8584 68.0468 35.2937C68.6115 34.729 68.8936 34.1644 68.8936 33.3173C68.8936 32.4703 68.7527 32.3291 68.4704 31.9056C68.188 31.482 67.4821 31.0585 66.635 30.4938V30.3525Z"
        fill="#231F58" />
    <path
        d="M74.5408 22.7305H73.2704V26.2599H71.7173V27.248H73.2704V35.7186H74.5408V27.248H76.3762V26.2599H74.5408V22.7305Z"
        fill="#231F58" />
    <path d="M81.1761 26.2598H79.9053V35.7185H81.1761V26.2598Z" fill="#231F58" />
    <path
        d="M87.6706 22.7305H86.4001V26.2599H84.7061V27.248H86.4001V35.7186H87.6706V27.248H89.5059V26.2599H87.6706V22.7305Z"
        fill="#231F58" />
    <path
        d="M99.3882 30.636C99.3882 31.7654 99.3881 32.6124 99.2469 32.8948C99.1057 33.4595 98.6823 33.883 98.2587 34.1654C97.8352 34.4477 97.2706 34.5888 96.5647 34.5888C95.8588 34.5888 95.2942 34.4478 94.8706 34.0242C94.4471 33.7419 94.0236 33.1772 93.8825 32.6125C93.8825 32.1889 93.7412 31.4829 93.7412 30.3535V25.9771H92.4707V30.4948C92.4707 31.7654 92.6116 32.8948 92.894 33.4595C93.1763 34.1654 93.5998 34.5889 94.3057 35.0124C94.8704 35.4359 95.7176 35.5771 96.5647 35.5771C97.4117 35.5771 98.2589 35.4359 98.8236 35.0124C99.3884 34.5889 99.9531 34.1654 100.235 33.4595C100.518 32.7536 100.659 31.7654 100.659 30.4948V25.8359H99.3882V30.2124V30.636Z"
        fill="#231F58" />
    <path
        d="M106.305 22.7305H105.176V26.2599H103.482V27.248H105.176V35.7186H106.305V27.248H108.282V26.2599H106.305V22.7305Z"
        fill="#231F58" />
    <path
        d="M117.6 33.8819C117.318 34.1642 116.895 34.4466 116.471 34.5878C116.048 34.729 115.483 34.8702 115.059 34.8702C114.071 34.8702 113.224 34.5878 112.518 33.8819C111.812 33.176 111.53 32.3291 111.53 31.1997H120C120 29.9291 119.577 28.7996 119.012 27.9526C118.024 26.682 116.753 26.1172 115.2 26.1172C113.647 26.1172 112.377 26.682 111.53 27.9526C110.824 28.9408 110.4 29.9291 110.4 31.1997C110.4 32.4703 110.824 33.5995 111.671 34.5878C112.518 35.576 113.789 36.1409 115.342 36.1409C116.895 36.1409 116.612 36.1408 117.177 35.8584C117.742 35.7172 118.165 35.2938 118.589 34.8702C119.012 34.4467 119.435 33.882 119.718 33.3173L118.73 32.7526C118.306 33.3173 118.024 33.882 117.741 34.0232L117.6 33.8819ZM112.659 28.0937C113.365 27.529 114.071 27.2467 115.059 27.2467C116.048 27.2467 116.188 27.2467 116.612 27.6703C117.177 27.9526 117.459 28.2349 117.883 28.6584C118.165 29.082 118.448 29.5055 118.589 30.2113H111.53C111.812 29.3643 112.094 28.6584 112.659 28.2348V28.0937Z"
        fill="#231F58" />
    <path
        d="M76.9409 1.83594C76.0939 1.83594 75.2468 1.97715 74.3997 2.40068C73.5526 2.68303 72.5644 3.38881 71.5762 4.23587V2.40068H67.0586V20.6125H71.5762V13.2712C71.5762 11.4359 71.576 10.1653 71.7171 9.60064C71.9995 8.47123 72.423 7.6241 73.1289 7.0594C73.8348 6.49469 74.5409 6.07123 75.5292 6.07123C76.5174 6.07123 76.7995 6.21244 77.3642 6.63597C77.7877 7.0595 78.2115 7.48296 78.3527 8.33002C78.4939 9.0359 78.635 10.4476 78.635 12.7065V20.6125H83.1526V8.61248C83.1526 6.49483 82.5877 4.94185 81.5995 3.81244C80.3289 2.54185 78.7762 1.97708 76.9409 1.97708V1.83594Z"
        fill="#231F58" />
    <path
        d="M112.8 13.1295V12.2825C112.8 9.74134 113.083 8.04725 113.506 7.2002C113.93 6.35314 114.918 5.78829 115.483 5.64712C116.753 5.36476 117.318 5.64725 118.306 6.49431L119.718 3.10604C119.012 2.54134 117.459 1.97656 116.188 1.97656C114.918 1.97656 114.636 2.25892 113.93 2.68244C113.224 3.10597 112.659 3.81186 112.236 4.80009V2.5413H108.283V20.7531H112.8V13.4118V13.1295Z"
        fill="#231F58" />
    <path
        d="M63.9532 11.8589C63.9532 8.89421 63.1063 6.49424 61.271 4.65895C59.4357 2.82366 57.1769 1.97656 54.2122 1.97656C51.2475 1.97656 49.2709 2.82366 47.4356 4.65895C45.6003 6.49424 44.7534 8.7531 44.7534 11.5766C44.7534 14.4002 45.6003 16.5177 47.4356 18.353C49.2709 20.1883 51.53 21.0354 54.3535 21.0354C57.177 21.0354 57.7416 20.7531 59.1533 20.0472C60.4239 19.3413 61.6944 18.3531 62.5414 17.0825L58.7297 15.2472C57.4592 16.3766 56.0476 17.0825 54.3535 17.0825C52.6594 17.0825 51.8123 16.6589 50.8241 15.9531C49.8358 15.2472 49.2709 14.1178 49.1297 12.8473H63.8122V12.0001L63.9532 11.8589ZM49.4123 9.17653C49.977 8.04712 50.5417 7.20013 51.1064 6.7766C52.0946 6.07071 53.2239 5.64712 54.4945 5.64712C55.765 5.64712 56.7532 5.92957 57.6003 6.63545C58.4473 7.20016 59.1533 8.04712 59.4356 9.17653H49.5533H49.4123Z"
        fill="#231F58" />
    <path
        d="M105.177 11.8589C105.177 8.89421 104.329 6.49424 102.494 4.65895C100.659 2.82366 98.4 1.97656 95.4353 1.97656C92.4706 1.97656 90.4941 2.82366 88.6588 4.65895C86.8235 6.49424 85.9766 8.7531 85.9766 11.5766C85.9766 14.4002 86.8235 16.5177 88.6588 18.353C90.4941 20.1883 92.7531 21.0354 95.5766 21.0354C98.4002 21.0354 98.9647 20.7531 100.376 20.0472C101.647 19.3413 102.918 18.3531 103.765 17.0825L99.9529 15.2472C98.6823 16.3766 97.2707 17.0825 95.5766 17.0825C93.8825 17.0825 93.0355 16.6589 92.0472 15.9531C91.059 15.2472 90.4943 14.1178 90.3532 12.8473H105.035V12.0001L105.177 11.8589ZM90.6355 9.17653C91.2002 8.04712 91.7648 7.20013 92.3295 6.7766C93.3177 6.07071 94.447 5.64712 95.7176 5.64712C96.9882 5.64712 97.9767 5.92957 98.8238 6.63545C99.6708 7.20016 100.376 8.04712 100.659 9.17653H90.7764H90.6355Z"
        fill="#231F58" />
    <path
        d="M134.259 2.40016V4.37667C133.27 3.52961 132.423 2.82366 131.435 2.5413C130.447 2.11777 129.459 1.97656 128.471 1.97656C126.212 1.97656 124.235 2.82372 122.682 4.37667C120.847 6.07078 120 8.47065 120 11.2942C120 14.1177 120.847 16.2355 122.541 17.9296C124.235 19.6237 126.353 20.612 128.753 20.612C131.153 20.612 130.87 20.4707 131.717 20.0472C132.564 19.6237 133.412 19.0589 134.259 18.353C134.259 19.7648 134.117 20.8943 133.835 21.459C133.553 22.0237 132.988 22.5884 132.282 22.8707C131.576 23.2943 130.588 23.4355 129.317 23.4355C128.047 23.4355 127.482 23.4354 126.776 23.0119C126.07 22.7295 125.506 22.3059 125.082 21.8824H120C120.424 23.153 120.988 24.1413 121.835 24.9884C122.682 25.8355 123.671 26.5414 124.941 26.9649C126.212 27.3884 127.623 27.6708 129.459 27.6708C132.847 27.6708 135.247 26.6824 136.941 24.7059C138.212 23.2942 138.776 21.0355 138.776 17.9296V2.40016H134.259ZM133.129 15.106C132.141 16.0943 131.011 16.5178 129.6 16.5178C128.188 16.5178 126.918 16.0943 125.929 15.106C124.941 14.1178 124.518 12.8473 124.518 11.4355C124.518 10.0237 124.941 8.753 125.929 7.76476C126.918 6.77653 128.047 6.353 129.459 6.353C130.871 6.353 132.141 6.77653 132.988 7.76476C133.976 8.753 134.4 9.88255 134.4 11.4355C134.4 12.9884 133.976 14.259 132.988 15.106H133.129Z"
        fill="#231F58" />
    <path
        d="M156 2.40039L150.776 13.6945L146.118 2.40039H141.459L148.376 19.2004L144.565 27.2474H149.365L160.659 2.40039H156Z"
        fill="#231F58" />
    <path
        d="M15.3886 24.8467C12.1415 24.282 9.03578 23.1526 6.35343 21.5996C5.78872 22.0231 5.22395 22.4467 4.51807 22.7291C6.21218 31.0585 13.5533 37.2702 22.4474 37.2702C31.3415 37.2702 24.7063 37.2702 25.6945 36.9879C20.1887 35.0114 16.518 30.3526 15.3886 24.9879V24.8467Z"
        fill="#F37021" />
    <path
        d="M7.62354 18.212C7.62354 18.7767 7.6236 19.3415 7.34125 19.9063C9.74125 21.4592 12.2824 22.4473 15.106 23.1532C14.9648 21.0356 15.106 18.7768 15.8118 16.6591C18.4942 8.32971 27.3881 4.51801 33.5999 5.7886C33.741 5.7886 33.8823 5.7886 34.0235 5.7886C34.3058 5.7886 34.5883 5.78857 34.8707 5.92975C35.0118 5.92975 35.1531 5.92975 35.2943 5.92975C32.0472 2.54151 27.3881 0.423828 22.3058 0.423828C13.9763 0.423828 6.91752 6.07089 4.65869 13.8356C6.35281 14.5415 7.48222 16.0944 7.48222 18.0709L7.62354 18.212Z"
        fill="#F37021" />
    <path
        d="M18.3529 18.6352C17.7881 20.1881 17.647 21.8823 17.647 23.4352C18.7764 23.4352 20.047 23.4352 21.1764 23.4352C29.5058 22.8705 38.3997 18.2117 38.9644 12.1411C38.9644 10.7293 37.694 9.59979 36.2822 9.17626C28.7998 6.63509 20.7527 10.8705 18.2115 18.494L18.3529 18.6352Z"
        fill="#F37021" />
    <path
        d="M32.0466 23.1538C31.7642 23.1538 31.3407 23.4362 31.0584 23.5774C28.5172 24.4245 25.6936 25.1303 22.8701 25.2715C21.176 25.2715 19.4817 25.2715 17.7876 25.2715C18.4935 30.2126 21.5995 34.7303 26.3995 36.7067C34.4466 34.8714 40.5171 27.5303 40.5171 18.9185C40.5171 10.3068 40.517 17.2245 40.3758 16.3774C38.5405 20.1892 34.1642 22.4479 32.0466 23.295V23.1538Z"
        fill="#F37021" />
    <path
        d="M6.21163 18.3539C6.21163 16.6597 4.79993 15.248 3.10581 15.248C1.4117 15.248 0 16.6597 0 18.3539C0 20.048 1.4117 21.4598 3.10581 21.4598C4.79993 21.4598 6.21163 20.048 6.21163 18.3539Z"
        fill="#231F58" />
    <path d="M48.5644 22.7305H47.2939V24.0009H48.5644V22.7305Z" fill="#231F58" />
    <path d="M81.1761 22.7305H79.9053V24.0009H81.1761V22.7305Z" fill="#231F58" />
</svg>